<svg width="151" height="158" viewBox="0 0 151 158" fill="none" xmlns="http://www.w3.org/2000/svg">
<g clip-path="url(#clip0_8623_2)">
<path fill-rule="evenodd" clip-rule="evenodd" d="M66.0625 26.3333C55.2163 26.3333 44.8143 30.8417 37.1448 38.8667C29.4754 46.8917 25.1667 57.7759 25.1667 69.125C25.1667 80.474 29.4754 91.3582 37.1448 99.3832C44.8143 107.408 55.2163 111.917 66.0625 111.917C76.9088 111.917 87.3108 107.408 94.9803 99.3832C102.65 91.3582 106.958 80.474 106.958 69.125C106.958 57.7759 102.65 46.8917 94.9803 38.8667C87.3108 30.8417 76.9088 26.3333 66.0625 26.3333ZM12.5834 69.125C12.5841 60.2019 14.6242 51.4083 18.5334 43.478C22.4426 35.5477 28.1075 28.7105 35.0557 23.5369C42.0038 18.3634 50.0336 15.0034 58.4751 13.7375C66.9166 12.4715 75.525 13.3361 83.5822 16.2593C91.6394 19.1825 98.9117 24.0795 104.792 30.5416C110.673 37.0037 114.991 44.8437 117.387 53.4073C119.783 61.971 120.188 71.01 118.566 79.7703C116.944 88.5306 113.344 96.7582 108.066 103.766L131.043 127.809C132.189 129.05 132.823 130.713 132.809 132.44C132.794 134.166 132.133 135.817 130.966 137.037C129.8 138.258 128.222 138.95 126.572 138.965C124.922 138.98 123.333 138.317 122.146 137.118L99.1693 113.075C91.2834 119.58 81.8068 123.629 71.824 124.761C61.8411 125.893 51.7554 124.062 42.721 119.476C33.6867 114.89 26.0687 107.735 20.7388 98.8309C15.409 89.9264 12.5827 79.6317 12.5834 69.125ZM59.7709 46.0833C59.7709 44.3373 60.4337 42.6628 61.6137 41.4282C62.7936 40.1936 64.3939 39.5 66.0625 39.5C73.5715 39.5 80.7729 42.6212 86.0825 48.1769C91.3921 53.7327 94.375 61.2679 94.375 69.125C94.375 70.871 93.7122 72.5455 92.5323 73.7801C91.3523 75.0147 89.752 75.7083 88.0834 75.7083C86.4147 75.7083 84.8144 75.0147 83.6345 73.7801C82.4546 72.5455 81.7917 70.871 81.7917 69.125C81.7917 64.7599 80.1345 60.5737 77.1847 57.4872C74.2349 54.4006 70.2342 52.6666 66.0625 52.6666C64.3939 52.6666 62.7936 51.973 61.6137 50.7384C60.4337 49.5038 59.7709 47.8293 59.7709 46.0833Z" fill="#1AA090"/>
</g>
<defs>
<clipPath id="clip0_8623_2">
<rect width="151" height="158" fill="white"/>
</clipPath>
</defs>
</svg>
