<svg width="225" height="224" viewBox="0 0 225 224" fill="none" xmlns="http://www.w3.org/2000/svg">
<path d="M84.375 28V9.33337H140.625V28H84.375ZM103.125 130.667H121.875V74.6667H103.125V130.667ZM112.5 205.333C100.938 205.333 90.0375 203.115 79.8 198.679C69.5625 194.242 60.6188 188.216 52.9688 180.6C45.3125 172.978 39.2563 164.071 34.8 153.879C30.3438 143.687 28.1188 132.838 28.125 121.333C28.125 109.822 30.3531 98.9707 34.8094 88.7787C39.2656 78.5867 45.3188 69.6827 52.9688 62.0667C60.625 54.4445 69.5719 48.4151 79.8094 43.9787C90.0469 39.5423 100.944 37.3272 112.5 37.3334C122.188 37.3334 131.484 38.8889 140.391 42C149.297 45.1112 157.656 49.6223 165.469 55.5334L178.594 42.4667L191.719 55.5334L178.594 68.6C184.531 76.3778 189.063 84.7 192.188 93.5667C195.313 102.433 196.875 111.689 196.875 121.333C196.875 132.844 194.647 143.696 190.191 153.888C185.734 164.08 179.681 172.984 172.031 180.6C164.375 188.222 155.428 194.252 145.191 198.688C134.953 203.124 124.056 205.34 112.5 205.333Z" fill="#1AA090"/>
</svg>
